<?xml version="1.0"?>
<!DOCTYPE svg PUBLIC "-//W3C//DTD SVG 1.0//EN" "http://www.w3.org/TR/2001/REC-SVG-20010904/DTD/svg10.dtd">
<svg xmlns="http://www.w3.org/2000/svg" xmlns:xlink="http://www.w3.org/1999/xlink" width="800" height="500" fill-rule="evenodd">
<g style="fill:#0055ff; stroke-width:0px">
<path d="M227.05054 312.47955L222.89429 312.47955L222.89429 314.9483Q222.89429 316.1983 223.40991 316.79205Q223.92554 317.3858 224.97241 317.3858Q226.05054 317.3858 226.55054 316.79205Q227.05054 316.1983 227.05054 314.9483L227.05054 312.47955ZM231.73804 312.47955L228.30054 312.47955L228.30054 314.7608Q228.30054 315.8858 228.72241 316.43268Q229.14429 316.99518 230.01929 316.99518Q230.87866 316.99518 231.30054 316.43268Q231.73804 315.8858 231.73804 314.7608L231.73804 312.47955ZM233.00366 310.9483L233.00366 314.87018Q233.00366 316.6358 232.26929 317.58893Q231.53491 318.54205 230.19116 318.54205Q229.14429 318.54205 228.51929 318.04205Q227.90991 317.55768 227.75366 316.62018Q227.51929 317.7608 226.73804 318.3858Q225.97241 319.0108 224.81616 319.0108Q223.28491 319.0108 222.45679 317.96393Q221.62866 316.93268 221.62866 315.02643L221.62866 310.9483L233.00366 310.9483Z"/>
</g>
<g style="fill:#0088ff; stroke-width:0px">
<path d="M389.40503 262.83557L389.40503 265.0387Q388.35815 264.05432 387.15503 263.56995Q385.96753 263.08557 384.62378 263.08557Q381.96753 263.08557 380.56128 264.71057Q379.15503 266.31995 379.15503 269.38245Q379.15503 272.42932 380.56128 274.05432Q381.96753 275.6637 384.62378 275.6637Q385.96753 275.6637 387.15503 275.17932Q388.35815 274.69495 389.40503 273.71057L389.40503 275.89807Q388.31128 276.64807 387.0769 277.02307Q385.85815 277.38245 384.49878 277.38245Q380.98315 277.38245 378.96753 275.24182Q376.9519 273.08557 376.9519 269.38245Q376.9519 265.64807 378.96753 263.50745Q380.98315 261.36682 384.49878 261.36682Q385.8894 261.36682 387.10815 261.74182Q388.3269 262.1012 389.40503 262.83557Z"/>
</g>
<g style="fill:#0055ff; stroke-width:0px">
<path d="M424.4925 183.32558L424.4925 198.51308L427.69562 198.51308Q431.7425 198.51308 433.6175 196.68495Q435.4925 194.85683 435.4925 190.9037Q435.4925 186.9662 433.6175 185.1537Q431.7425 183.32558 427.69562 183.32558L424.4925 183.32558ZM421.85187 181.1537L427.28937 181.1537Q432.96124 181.1537 435.6175 183.51308Q438.27374 185.87245 438.27374 190.9037Q438.27374 195.95058 435.60187 198.32558Q432.94562 200.68495 427.28937 200.68495L421.85187 200.68495L421.85187 181.1537Z"/>
</g>
<g style="fill:#00ffdd; stroke-width:0px">
<path d="M655.6868 290.7891L670.6243 290.7891L670.6243 293.4766L658.88995 293.4766L658.88995 300.46097L670.13995 300.46097L670.13995 303.14847L658.88995 303.14847L658.88995 311.71097L670.9056 311.71097L670.9056 314.39847L655.6868 314.39847L655.6868 290.7891Z"/>
</g>
<g style="fill:#0033ff; stroke-width:0px">
<path d="M645.45245 272.49057L661.3743 272.49057L661.3743 275.64682L649.20245 275.64682L649.20245 283.80307L660.1868 283.80307L660.1868 286.95932L649.20245 286.95932L649.20245 300.1937L645.45245 300.1937L645.45245 272.49057Z"/>
</g>
<g style="fill:#0033ff; stroke-width:0px">
<path d="M528.2328 237.07762L528.2328 228.54637L521.20154 228.54637L521.20154 224.9995L532.4828 224.9995L532.4828 238.65575Q529.9984 240.42137 526.9984 241.32762Q523.9984 242.23387 520.59216 242.23387Q513.13904 242.23387 508.9359 237.8745Q504.7328 233.51512 504.7328 225.7495Q504.7328 217.95262 508.9359 213.60887Q513.13904 209.2495 520.59216 209.2495Q523.6859 209.2495 526.4828 210.01512Q529.2953 210.78075 531.65466 212.28075L531.65466 216.85887Q529.26404 214.82762 526.57654 213.812Q523.90466 212.78075 520.95154 212.78075Q515.1078 212.78075 512.1859 216.04637Q509.26404 219.29637 509.26404 225.7495Q509.26404 232.17137 512.1859 235.437Q515.1078 238.687 520.95154 238.687Q523.2328 238.687 525.01404 238.29637Q526.7953 237.90575 528.2328 237.07762Z"/>
</g>
<g style="fill:#0088ff; stroke-width:0px">
<path d="M672.7533 176.12451L677.59705 176.12451L677.59705 190.82764L695.2377 190.82764L695.2377 176.12451L700.0814 176.12451L700.0814 211.98389L695.2377 211.98389L695.2377 194.90576L677.59705 194.90576L677.59705 211.98389L672.7533 211.98389L672.7533 176.12451Z"/>
</g>
<g style="fill:#0088ff; stroke-width:0px">
<path d="M334.12955 283.79468L340.0983 283.79468L340.0983 324.76343Q340.0983 332.71655 337.06705 336.3103Q334.05142 339.91968 327.3483 339.91968L325.08267 339.91968L325.08267 334.90405L326.94205 334.90405Q330.89517 334.90405 332.50455 332.6853Q334.12955 330.48218 334.12955 324.76343L334.12955 283.79468Z"/>
</g>
<g style="fill:#00ffdd; stroke-width:0px">
<path d="M443.82434 202.5321L443.82434 209.0321L423.49622 209.0321L443.82434 230.62585L443.82434 239.00085L421.40247 215.12585L395.71497 240.7196L395.71497 232.14148L418.88684 209.0321L395.71497 209.0321L395.71497 202.5321L443.82434 202.5321Z"/>
</g>
<g style="fill:#00ffdd; stroke-width:0px">
<path d="M521.7754 324.68918L528.8379 324.68918L528.8379 370.93918L554.24414 370.93918L554.24414 376.87668L521.7754 376.87668L521.7754 324.68918Z"/>
</g>
<g style="fill:#0088ff; stroke-width:0px">
<path d="M432.64627 274.79785L443.99002 274.79785L458.3494 313.0791L472.7869 274.79785L484.13065 274.79785L484.13065 331.06348L476.70877 331.06348L476.70877 281.65723L462.19315 320.25098L454.5369 320.25098L440.0369 281.65723L440.0369 331.06348L432.64627 331.06348L432.64627 274.79785Z"/>
</g>
<g style="fill:#0055ff; stroke-width:0px">
<path d="M286.47458 249.30896L286.47458 260.30896L235.97458 287.0746L286.47458 287.0746L286.47458 294.99646L226.1152 294.99646L226.1152 283.99646L276.6152 257.23083L226.1152 257.23083L226.1152 249.30896L286.47458 249.30896Z"/>
</g>
<g style="fill:#00bbff; stroke-width:0px">
<path d="M248.42949 188.33199Q238.92949 188.33199 233.33574 195.41011Q227.75761 202.48824 227.75761 214.70699Q227.75761 226.87886 233.33574 233.95699Q238.92949 241.03511 248.42949 241.03511Q257.9295 241.03511 263.47638 233.95699Q269.02325 226.87886 269.02325 214.70699Q269.02325 202.48824 263.47638 195.41011Q257.9295 188.33199 248.42949 188.33199ZM248.42949 181.25386Q261.97638 181.25386 270.08575 190.34761Q278.21075 199.42574 278.21075 214.70699Q278.21075 229.94136 270.08575 239.03511Q261.97638 248.11324 248.42949 248.11324Q234.83574 248.11324 226.69511 239.05074Q218.57011 229.98824 218.57011 214.70699Q218.57011 199.42574 226.69511 190.34761Q234.83574 181.25386 248.42949 181.25386Z"/>
</g>
<g style="fill:#00bbff; stroke-width:0px">
<path d="M460.10025 221.23322L460.10025 246.98322L471.7565 246.98322Q478.22525 246.98322 481.7565 243.63947Q485.30338 240.28009 485.30338 234.07697Q485.30338 227.93634 481.7565 224.59259Q478.22525 221.23322 471.7565 221.23322L460.10025 221.23322ZM450.819 213.60822L471.7565 213.60822Q483.27213 213.60822 489.16275 218.82697Q495.069 224.03009 495.069 234.07697Q495.069 244.23322 489.16275 249.42072Q483.27213 254.59259 471.7565 254.59259L460.10025 254.59259L460.10025 282.13947L450.819 282.13947L450.819 213.60822Z"/>
</g>
<g style="fill:#0088ff; stroke-width:0px">
<path d="M391.55853 251.08046Q380.8554 251.08046 374.55853 259.06482Q368.26166 267.03357 368.26166 280.78357Q368.26166 294.50232 374.55853 302.4867Q380.8554 310.45544 391.55853 310.45544Q402.24603 310.45544 408.49603 302.4867Q414.74603 294.50232 414.74603 280.78357Q414.74603 267.03357 408.49603 259.06482Q402.24603 251.08046 391.55853 251.08046ZM405.30853 315.70544L418.24603 329.8617L406.38666 329.8617L395.63666 318.2367Q394.02728 318.33044 393.1679 318.37732Q392.32416 318.4242 391.55853 318.4242Q376.2304 318.4242 367.05853 308.18982Q357.90228 297.95544 357.90228 280.78357Q357.90228 263.58044 367.05853 253.34608Q376.2304 243.09608 391.55853 243.09608Q406.82416 243.09608 415.96478 253.34608Q425.1054 263.58044 425.1054 280.78357Q425.1054 293.43982 420.02728 302.43982Q414.94916 311.4242 405.30853 315.70544Z"/>
</g>
<g style="fill:#00ffdd; stroke-width:0px">
<path d="M606.0965 222.94398Q607.2215 219.60023 610.9246 216.44398Q614.62775 213.28773 621.0965 210.10023L642.0496 199.56898L642.0496 210.72523L622.37775 220.53773Q614.6746 224.33461 612.159 227.91273Q609.6434 231.47523 609.6434 237.63148L609.6434 248.92836L642.0496 248.92836L642.0496 259.30334L565.3621 259.30338L565.3621 235.88148Q565.3621 222.74086 570.8621 216.27211Q576.3621 209.80336 587.4559 209.80336Q594.69025 209.80336 599.4715 213.16273Q604.25275 216.52211 606.0965 222.94398ZM573.8934 248.92836L601.1121 248.92836L601.1121 235.88148Q601.1121 228.38148 597.6434 224.56898Q594.1746 220.74086 587.4559 220.74086Q580.7215 220.74086 577.31525 224.56898Q573.8934 228.38148 573.8934 235.88148L573.8934 248.92836Z"/>
</g>
<g style="fill:#0033ff; stroke-width:0px">
<path d="M284.95868 174.98645L274.30243 174.98645Q277.27118 168.7677 278.7243 163.23645Q280.19305 157.72083 280.19305 152.5802Q280.19305 143.65833 276.7243 138.81458Q273.27118 133.97083 266.88055 133.97083Q261.52118 133.97083 258.7868 137.18958Q256.06805 140.40833 254.38055 149.3927L253.0368 155.98645Q250.70868 168.22083 244.83368 174.03333Q238.9743 179.84583 229.13055 179.84583Q217.38055 179.84583 211.31805 171.97083Q205.27118 164.11145 205.27118 148.90833Q205.27118 143.17395 206.56805 136.7052Q207.86493 130.23645 210.4118 123.314575L221.6618 123.314575Q217.92743 129.97083 216.02118 136.34583Q214.13055 142.73645 214.13055 148.90833Q214.13055 158.2677 217.80243 163.34583Q221.48993 168.43958 228.31805 168.43958Q234.25555 168.43958 237.61493 164.78333Q240.9743 161.12708 242.64618 152.79895L243.94305 146.1427Q246.38055 133.92395 251.56805 128.4552Q256.77118 122.98645 266.02118 122.98645Q276.7243 122.98645 282.89618 130.53333Q289.06805 138.0802 289.06805 151.34583Q289.06805 157.0177 288.0368 162.90833Q287.00555 168.81458 284.95868 174.98645Z"/>
</g>
<g style="fill:#0033ff; stroke-width:0px">
<path d="M312.19455 207.19406L383.9758 207.19406L383.9758 216.85031L353.8508 216.85031L353.8508 292.0378L342.31955 292.0378L342.31955 216.85031L312.19455 216.85031L312.19455 207.19406Z"/>
</g>
<g style="fill:#0088ff; stroke-width:0px">
<path d="M239.7275 297.1916L251.82124 297.1916L251.82124 351.22284Q251.82124 365.5197 256.9931 371.80096Q262.1806 378.0822 273.78998 378.0822Q285.35248 378.0822 290.52435 371.80096Q295.71185 365.5197 295.71185 351.22284L295.71185 297.1916L307.8056 297.1916L307.8056 352.7072Q307.8056 370.09784 299.19623 378.98846Q290.60248 387.86346 273.78998 387.86346Q256.9306 387.86346 248.32124 378.98846Q239.7275 370.09784 239.7275 352.7072L239.7275 297.1916Z"/>
</g>
<g style="fill:#00bbff; stroke-width:0px">
<path d="M631.7936 311.67017L538.77795 347.1858L538.77795 334.04517L617.09045 304.57642L538.77795 275.04517L538.77795 261.96704L631.7936 297.40454L631.7936 311.67017Z"/>
</g>
<g style="fill:#00bbff; stroke-width:0px">
<path d="M141.3063 191.18951L156.00943 191.18951L181.15005 228.81451L206.4313 191.18951L221.13443 191.18951L188.60318 239.78326L223.3063 292.377L208.60318 292.377L180.13443 249.34576L151.46255 292.377L136.69693 292.377L172.8063 238.36139L141.3063 191.18951Z"/>
</g>
<g style="fill:#0055ff; stroke-width:0px">
<path d="M272.17456 99.14545L287.47144 99.14545L316.65894 142.44232L345.6433 99.14545L360.9402 99.14545L323.7058 154.28607L323.7058 204.41107L309.3933 204.41107L309.3933 154.28607L272.17456 99.14545Z"/>
</g>
<g style="fill:#0033ff; stroke-width:0px">
<path d="M447.97266 94.73718L533.89453 94.73718L533.89453 106.00281L464.7539 191.6278L535.5664 191.6278L535.5664 204.08093L446.28516 204.08093L446.28516 192.79968L515.4258 107.17468L447.97266 107.17468L447.97266 94.73718Z"/>
</g>
</svg>
